<svg xmlns="http://www.w3.org/2000/svg" width="364" height="380" viewBox="0 0 364 380" version="1.1"><path d="M 168.839 18.494 C 168.482 18.852, 164.884 19.537, 160.845 20.018 C 156.805 20.498, 151.250 21.391, 148.500 22.001 C 145.750 22.612, 142.033 23.361, 140.241 23.666 C 138.448 23.971, 136.734 24.621, 136.432 25.110 C 136.129 25.600, 134.585 26, 133 26 C 131.415 26, 129.840 26.450, 129.500 27 C 129.160 27.550, 128.229 28, 127.430 28 C 124.976 28, 100.201 39.788, 98 42.003 C 97.725 42.280, 95.035 44.012, 92.023 45.853 C 84.225 50.618, 81.281 53.066, 67.795 66 C 52.440 80.726, 43.284 92.751, 34.117 110.226 C 30.783 116.581, 31.353 118.003, 36.300 115.673 C 38.060 114.844, 41.300 113.877, 43.500 113.524 C 45.700 113.170, 50.322 112.164, 53.772 111.286 C 65.056 108.416, 74.851 112.520, 76.546 120.827 C 76.846 122.297, 77.520 125.127, 78.045 127.116 C 78.570 129.105, 79 135.301, 79 140.886 C 79 150.158, 78.769 151.407, 76.336 155.270 C 72.998 160.570, 72.638 160.838, 60.500 167.057 C 55 169.875, 49.790 172.815, 48.921 173.590 C 48.053 174.366, 47.009 175, 46.601 175 C 44.966 175, 37.042 181.172, 32.129 186.273 C 23.021 195.730, 18.451 207.153, 19.437 218 C 20.387 228.463, 25.029 247.853, 27.204 250.450 C 27.642 250.972, 28 252.216, 28 253.214 C 28 254.211, 28.415 255.809, 28.922 256.764 C 29.428 257.719, 31.471 261.875, 33.461 266 C 40.371 280.327, 47.164 291.278, 53.929 299 C 55.615 300.925, 56.996 302.752, 56.998 303.060 C 57.005 304.855, 81.723 327.447, 87.117 330.589 C 88.145 331.188, 89.812 332.425, 90.822 333.339 C 91.831 334.252, 93.037 335, 93.500 335 C 93.963 335, 95.053 335.617, 95.921 336.372 C 98.397 338.523, 108.682 344.074, 117.500 348.017 C 124.082 350.961, 125.655 351.541, 131 353 C 133.475 353.675, 136.400 354.572, 137.500 354.991 C 139.451 355.736, 143.259 356.615, 155.500 359.143 C 164.847 361.074, 199.393 360.686, 210.500 358.525 C 215.450 357.562, 220.967 356.551, 222.759 356.277 C 224.552 356.003, 226.266 355.379, 226.568 354.890 C 226.871 354.400, 228.415 354, 230 354 C 231.585 354, 233.160 353.550, 233.500 353 C 233.840 352.450, 234.998 352, 236.073 352 C 237.148 352, 238.809 351.603, 239.764 351.117 C 240.719 350.631, 242.625 349.791, 244 349.251 C 255.467 344.744, 275.404 332.791, 286.888 323.538 C 300.162 312.843, 310.154 301.603, 321.181 284.964 C 329.327 272.670, 329.644 272.152, 331.556 268 C 332.443 266.075, 333.580 263.719, 334.084 262.764 C 336.472 258.236, 334.152 256.591, 329.885 259.785 C 327.626 261.476, 320.162 265.220, 315.250 267.127 C 314.012 267.607, 311.988 268.399, 310.750 268.886 C 305.876 270.805, 288.954 275.204, 280 276.880 C 276.975 277.446, 271.800 278.438, 268.500 279.084 C 262.490 280.262, 249.872 281.350, 227.609 282.612 C 206.571 283.805, 185.101 279.676, 174.440 272.388 C 169.432 268.965, 163 260.178, 163 256.760 C 163 255.857, 162.600 254.871, 162.110 254.568 C 161.621 254.266, 160.923 252.327, 160.559 250.259 C 159.509 244.292, 157.987 218.728, 158.534 216.263 C 159.032 214.026, 159.032 214.026, 230.266 213.652 C 298.302 213.294, 309.316 212.915, 310.565 210.894 C 310.869 210.402, 311.998 210, 313.073 210 C 314.148 210, 315.809 209.603, 316.764 209.117 C 317.719 208.631, 320.709 207.104, 323.409 205.723 C 329.596 202.559, 340.129 192.185, 342.737 186.686 C 346.869 177.978, 348.011 172.712, 347.981 162.500 C 347.965 157, 347.482 150.700, 346.907 148.500 C 346.331 146.300, 345.646 143.375, 345.383 142 C 344.346 136.578, 341.758 127.823, 339.765 123 C 339.197 121.625, 338.406 119.600, 338.008 118.500 C 336.642 114.733, 328.785 99.501, 327.392 97.921 C 326.626 97.053, 326 96.060, 326 95.716 C 326 95.371, 324.983 93.606, 323.741 91.794 C 310.052 71.831, 292.284 54.792, 272.097 42.269 C 265.127 37.945, 245.658 28.782, 239.500 26.928 C 237.300 26.265, 234.600 25.369, 233.500 24.937 C 232.400 24.504, 230.150 23.868, 228.500 23.522 C 226.850 23.176, 223.475 22.440, 221 21.887 C 218.525 21.334, 213.800 20.427, 210.500 19.872 C 203.367 18.673, 169.771 17.562, 168.839 18.494 M 176.654 103.202 C 166.460 104.611, 164.279 106.173, 159.849 115.236 C 159.382 116.191, 159 126.413, 159 137.951 C 159 158.671, 159.028 158.945, 161.250 160.175 C 162.923 161.101, 175.030 161.509, 208.500 161.770 C 252.212 162.111, 253.592 162.063, 256.701 160.105 C 261.620 157.007, 263.335 152.925, 261.900 147.732 C 260.260 141.796, 258.643 138, 257.756 138 C 257.340 138, 257 137.326, 257 136.503 C 257 132.191, 236.227 114.512, 225 109.268 C 211.765 103.087, 193.797 100.833, 176.654 103.202" stroke="none" fill="#61368c" fill-rule="evenodd"/><path d="M 0 190.003 C 0 380.005, 0 380.005, 182.250 379.753 C 364.500 379.500, 364.500 379.500, 364.753 189.750 C 365.005 0, 365.005 0, 182.503 0 C 0 0, 0 0, 0 190.003 M 0.490 190.500 C 0.490 295, 0.607 337.602, 0.750 285.171 C 0.893 232.739, 0.893 147.239, 0.750 95.171 C 0.607 43.102, 0.490 86, 0.490 190.500 M 168.839 18.494 C 168.482 18.852, 164.884 19.537, 160.845 20.018 C 156.805 20.498, 151.250 21.391, 148.500 22.001 C 145.750 22.612, 142.033 23.361, 140.241 23.666 C 138.448 23.971, 136.734 24.621, 136.432 25.110 C 136.129 25.600, 134.585 26, 133 26 C 131.415 26, 129.840 26.450, 129.500 27 C 129.160 27.550, 128.229 28, 127.430 28 C 124.976 28, 100.201 39.788, 98 42.003 C 97.725 42.280, 95.035 44.012, 92.023 45.853 C 84.225 50.618, 81.281 53.066, 67.795 66 C 52.440 80.726, 43.284 92.751, 34.117 110.226 C 30.783 116.581, 31.353 118.003, 36.300 115.673 C 38.060 114.844, 41.300 113.877, 43.500 113.524 C 45.700 113.170, 50.322 112.164, 53.772 111.286 C 65.056 108.416, 74.851 112.520, 76.546 120.827 C 76.846 122.297, 77.520 125.127, 78.045 127.116 C 78.570 129.105, 79 135.301, 79 140.886 C 79 150.158, 78.769 151.407, 76.336 155.270 C 72.998 160.570, 72.638 160.838, 60.500 167.057 C 55 169.875, 49.790 172.815, 48.921 173.590 C 48.053 174.366, 47.009 175, 46.601 175 C 44.966 175, 37.042 181.172, 32.129 186.273 C 23.021 195.730, 18.451 207.153, 19.437 218 C 20.387 228.463, 25.029 247.853, 27.204 250.450 C 27.642 250.972, 28 252.216, 28 253.214 C 28 254.211, 28.415 255.809, 28.922 256.764 C 29.428 257.719, 31.471 261.875, 33.461 266 C 40.371 280.327, 47.164 291.278, 53.929 299 C 55.615 300.925, 56.996 302.752, 56.998 303.060 C 57.005 304.855, 81.723 327.447, 87.117 330.589 C 88.145 331.188, 89.812 332.425, 90.822 333.339 C 91.831 334.252, 93.037 335, 93.500 335 C 93.963 335, 95.053 335.617, 95.921 336.372 C 98.397 338.523, 108.682 344.074, 117.500 348.017 C 124.082 350.961, 125.655 351.541, 131 353 C 133.475 353.675, 136.400 354.572, 137.500 354.991 C 139.451 355.736, 143.259 356.615, 155.500 359.143 C 164.847 361.074, 199.393 360.686, 210.500 358.525 C 215.450 357.562, 220.967 356.551, 222.759 356.277 C 224.552 356.003, 226.266 355.379, 226.568 354.890 C 226.871 354.400, 228.415 354, 230 354 C 231.585 354, 233.160 353.550, 233.500 353 C 233.840 352.450, 234.998 352, 236.073 352 C 237.148 352, 238.809 351.603, 239.764 351.117 C 240.719 350.631, 242.625 349.791, 244 349.251 C 255.467 344.744, 275.404 332.791, 286.888 323.538 C 300.162 312.843, 310.154 301.603, 321.181 284.964 C 329.327 272.670, 329.644 272.152, 331.556 268 C 332.443 266.075, 333.580 263.719, 334.084 262.764 C 336.472 258.236, 334.152 256.591, 329.885 259.785 C 327.626 261.476, 320.162 265.220, 315.250 267.127 C 314.012 267.607, 311.988 268.399, 310.750 268.886 C 305.876 270.805, 288.954 275.204, 280 276.880 C 276.975 277.446, 271.800 278.438, 268.500 279.084 C 262.490 280.262, 249.872 281.350, 227.609 282.612 C 206.571 283.805, 185.101 279.676, 174.440 272.388 C 169.432 268.965, 163 260.178, 163 256.760 C 163 255.857, 162.600 254.871, 162.110 254.568 C 161.621 254.266, 160.923 252.327, 160.559 250.259 C 159.509 244.292, 157.987 218.728, 158.534 216.263 C 159.032 214.026, 159.032 214.026, 230.266 213.652 C 298.302 213.294, 309.316 212.915, 310.565 210.894 C 310.869 210.402, 311.998 210, 313.073 210 C 314.148 210, 315.809 209.603, 316.764 209.117 C 317.719 208.631, 320.709 207.104, 323.409 205.723 C 329.596 202.559, 340.129 192.185, 342.737 186.686 C 346.869 177.978, 348.011 172.712, 347.981 162.500 C 347.965 157, 347.482 150.700, 346.907 148.500 C 346.331 146.300, 345.646 143.375, 345.383 142 C 344.346 136.578, 341.758 127.823, 339.765 123 C 339.197 121.625, 338.406 119.600, 338.008 118.500 C 336.642 114.733, 328.785 99.501, 327.392 97.921 C 326.626 97.053, 326 96.060, 326 95.716 C 326 95.371, 324.983 93.606, 323.741 91.794 C 310.052 71.831, 292.284 54.792, 272.097 42.269 C 265.127 37.945, 245.658 28.782, 239.500 26.928 C 237.300 26.265, 234.600 25.369, 233.500 24.937 C 232.400 24.504, 230.150 23.868, 228.500 23.522 C 226.850 23.176, 223.475 22.440, 221 21.887 C 218.525 21.334, 213.800 20.427, 210.500 19.872 C 203.367 18.673, 169.771 17.562, 168.839 18.494 M 176.654 103.202 C 166.460 104.611, 164.279 106.173, 159.849 115.236 C 159.382 116.191, 159 126.413, 159 137.951 C 159 158.671, 159.028 158.945, 161.250 160.175 C 162.923 161.101, 175.030 161.509, 208.500 161.770 C 252.212 162.111, 253.592 162.063, 256.701 160.105 C 261.620 157.007, 263.335 152.925, 261.900 147.732 C 260.260 141.796, 258.643 138, 257.756 138 C 257.340 138, 257 137.326, 257 136.503 C 257 132.191, 236.227 114.512, 225 109.268 C 211.765 103.087, 193.797 100.833, 176.654 103.202" stroke="none" fill="#f9f9f7" fill-rule="evenodd"/></svg>